<?xml version="1.0" encoding="utf-8"?>
<!-- Generator: Adobe Illustrator 19.2.1, SVG Export Plug-In . SVG Version: 6.00 Build 0)  -->
<svg version="1.1" id="Layer_1" xmlns="http://www.w3.org/2000/svg" xmlns:xlink="http://www.w3.org/1999/xlink" x="0px" y="0px"
	 viewBox="0 0 2000 2000" style="enable-background:new 0 0 2000 2000;" xml:space="preserve">
<style type="text/css">
	.st0{fill:#ECC519;}
	.st1{fill:#DC9817;}
	.st2{fill:#3D1F13;}
	.st3{fill:#EFCB13;}
</style>
<g>
	<g>
		<path class="st0" d="M827,1123.5l117.7-42.6l123.3-5l82.7,23.8l31.7,15.5l16.7,11l7,15c0,0,3.7-3.3-2.3,15.7s0.3-9.3-6,17.3
			c-6.3,26.7,6.7-2-4.3,23.7s1.3,2-10,23.3c-11.3,21.3,2.7,7.3-8,17.7c-10.7,10.3-8.8,9.3-8.8,9.3l-6.2,0l-87.7-20l-50-5.3
			l-67.3-0.3l-41.7,8.3c0,0-2.3-3.7-32,6s-18.7,0-29.7,9.7c-11,9.7-6,6.3-6,6.3l-11-1.3l-13.3-26.6c0,0-6.7,7.9-11.7-37.8
			c-5-45.7-4,2-3.7-31c0.3-33-1.3-14.7-1.3-14.7l1.7-18.3L827,1123.5z"/>
		<path id="XMLID_77_" class="st1" d="M820.1,1068.1c0.3-0.2,0.6-0.3,1-0.4c3-1.4,6-2.9,9-4.2c0.4-0.2,0.8-0.4,1.2-0.5
			c2.7-1.2,5.4-2.4,8.1-3.5c0.8-0.3,1.7-0.7,2.5-1c3.1-1.3,6.2-2.5,9.3-3.7c0.1,0,0.2-0.1,0.4-0.1c3-1.2,6.1-2.3,9.2-3.3
			c0.9-0.3,1.8-0.6,2.6-0.9c2.8-1,5.7-1.9,8.6-2.9c0.4-0.1,0.8-0.3,1.2-0.4c3.2-1,6.4-2,9.7-2.9c0.9-0.3,1.8-0.5,2.7-0.8
			c2.7-0.8,5.5-1.5,8.2-2.2c0.6-0.2,1.3-0.3,1.9-0.5c3.3-0.8,6.5-1.6,9.8-2.4c0.9-0.2,1.7-0.4,2.6-0.6c2.7-0.6,5.5-1.2,8.2-1.7
			c0.8-0.2,1.5-0.3,2.3-0.5c3.3-0.6,6.7-1.3,10-1.8c0.8-0.1,1.6-0.3,2.4-0.4c2.8-0.5,5.6-0.9,8.4-1.3c0.9-0.1,1.7-0.2,2.6-0.4
			c3.4-0.5,6.8-0.9,10.2-1.3c0.6-0.1,1.3-0.1,1.9-0.2c2.9-0.3,5.8-0.6,8.8-0.8c0.9-0.1,1.8-0.2,2.7-0.2c3.5-0.3,6.9-0.5,10.4-0.7
			c0.4,0,0.8,0,1.2-0.1c3.1-0.2,6.3-0.3,9.5-0.4c0.9,0,1.9-0.1,2.8-0.1c3.5-0.1,7.1-0.1,10.6-0.1c3.6,0,7.1,0.1,10.6,0.1
			c0.9,0,1.9,0,2.8,0.1c3.2,0.1,6.3,0.2,9.5,0.4c0.4,0,0.8,0,1.2,0.1c3.5,0.2,7,0.4,10.4,0.7c0.9,0.1,1.8,0.2,2.7,0.2
			c2.9,0.3,5.8,0.5,8.8,0.8c0.6,0.1,1.3,0.1,1.9,0.2c3.4,0.4,6.8,0.8,10.2,1.3c0.9,0.1,1.7,0.2,2.6,0.4c2.8,0.4,5.6,0.8,8.4,1.3
			c0.8,0.1,1.6,0.2,2.3,0.4c3.4,0.6,6.7,1.2,10,1.8c0.8,0.2,1.5,0.3,2.3,0.5c2.7,0.5,5.5,1.1,8.2,1.7c0.9,0.2,1.7,0.4,2.6,0.6
			c3.3,0.8,6.6,1.5,9.8,2.4c0.6,0.2,1.2,0.3,1.9,0.5c2.8,0.7,5.5,1.5,8.2,2.2c0.9,0.2,1.8,0.5,2.7,0.8c3.2,0.9,6.5,1.9,9.7,2.9
			c0.4,0.1,0.8,0.2,1.1,0.4c2.9,0.9,5.8,1.9,8.6,2.9c0.9,0.3,1.7,0.6,2.6,0.9c3.1,1.1,6.2,2.2,9.2,3.4c0.1,0,0.2,0.1,0.3,0.1
			c3.1,1.2,6.3,2.4,9.4,3.7c0.8,0.3,1.7,0.7,2.5,1c2.7,1.1,5.5,2.3,8.2,3.5c0.4,0.2,0.8,0.3,1.2,0.5c3,1.4,6,2.8,9,4.2
			c0.3,0.2,0.6,0.3,0.9,0.4c-23.4-82.7-95.2-143.1-180-143.1C915.3,925,843.5,985.4,820.1,1068.1z"/>
		<path id="XMLID_76_" class="st1" d="M944.2,733.7c18.8,14.8,37.6,31.2,56,49.3c13.6-13.3,27.4-25.8,41.3-37.3
			c16-13.7,32.9-27,50.8-39.4c5.2-17,8-33.5,8-47.1c0-54.5-45.4-98.8-101.1-98.8c-55.8,0-101.1,44.3-101.1,98.8
			c0,13.3,2.7,29.2,7.6,45.7C919,714,931.9,723.7,944.2,733.7z"/>
		<path id="XMLID_75_" class="st1" d="M1113.3,1286.8c-0.8-0.7-1.6-1.3-2.5-2c-0.4-0.3-0.9-0.7-1.3-1c-0.8-0.6-1.5-1.2-2.3-1.8
			c-0.5-0.3-0.9-0.7-1.4-1c-0.8-0.6-1.6-1.2-2.4-1.7c-0.4-0.3-0.8-0.6-1.3-0.9c-0.9-0.7-1.9-1.3-2.8-1.9c-0.3-0.2-0.6-0.4-0.9-0.6
			c-1.2-0.8-2.5-1.6-3.8-2.4c-0.2-0.2-0.5-0.3-0.7-0.5c-1-0.6-2-1.2-3.1-1.9c-0.4-0.3-0.9-0.5-1.3-0.7c-0.9-0.5-1.7-1-2.6-1.5
			c-0.5-0.3-0.9-0.5-1.4-0.8c-0.9-0.5-1.7-0.9-2.6-1.4c-0.5-0.2-0.9-0.5-1.4-0.7c-0.9-0.5-1.9-1-2.8-1.4c-0.4-0.2-0.7-0.4-1.1-0.6
			c-1.3-0.7-2.7-1.3-4-1.9c0,0,0,0-0.1,0c-1.3-0.6-2.6-1.2-4-1.7c-0.4-0.2-0.8-0.3-1.2-0.5c-1-0.4-1.9-0.8-2.9-1.2
			c-0.5-0.2-1-0.4-1.5-0.6c-0.9-0.3-1.8-0.7-2.7-1c-0.5-0.2-1-0.4-1.5-0.5c-0.9-0.3-1.9-0.7-2.9-1c-0.4-0.2-0.9-0.3-1.3-0.5
			c-1.2-0.4-2.4-0.8-3.6-1.2c-0.2-0.1-0.4-0.1-0.5-0.2c-1.4-0.4-2.8-0.8-4.2-1.2c-0.4-0.1-0.7-0.2-1.1-0.3c-1-0.3-2.1-0.6-3.1-0.8
			c-0.5-0.1-1-0.2-1.5-0.4c-0.9-0.2-1.9-0.4-2.8-0.7c-0.5-0.1-1.1-0.2-1.6-0.3c-0.9-0.2-1.9-0.4-2.8-0.6c-0.5-0.1-1-0.2-1.5-0.3
			c-1.1-0.2-2.1-0.4-3.2-0.6c-0.4-0.1-0.8-0.1-1.1-0.2c-1.5-0.2-2.9-0.5-4.4-0.6c-0.3,0-0.6-0.1-0.9-0.1c-1.2-0.2-2.4-0.3-3.5-0.4
			c-0.5-0.1-1-0.1-1.5-0.2c-1-0.1-1.9-0.2-2.9-0.3c-0.6,0-1.1-0.1-1.7-0.1c-0.9-0.1-1.9-0.1-2.8-0.2c-0.6,0-1.1-0.1-1.7-0.1
			c-1,0-2-0.1-3-0.1c-0.5,0-1,0-1.4,0c-1.5,0-3-0.1-4.5-0.1c-1.5,0-3.1,0-4.6,0.1c-0.5,0-1,0-1.5,0.1c-1,0-2.1,0.1-3.1,0.1
			c-0.6,0-1.1,0.1-1.7,0.1c-1,0.1-1.9,0.1-2.9,0.2c-0.6,0-1.2,0.1-1.7,0.1c-1,0.1-1.9,0.2-2.9,0.3c-0.5,0.1-1.1,0.1-1.6,0.2
			c-1.1,0.1-2.2,0.3-3.3,0.4c-0.4,0.1-0.8,0.1-1.2,0.2c-1.5,0.2-3,0.4-4.5,0.7c-0.3,0-0.6,0.1-0.9,0.2c-1.2,0.2-2.4,0.4-3.5,0.6
			c-0.5,0.1-1,0.2-1.5,0.3c-1,0.2-1.9,0.4-2.9,0.6c-0.6,0.1-1.1,0.2-1.7,0.4c-0.9,0.2-1.9,0.4-2.8,0.7c-0.5,0.1-1.1,0.3-1.6,0.4
			c-1,0.2-1.9,0.5-2.9,0.8c-0.5,0.1-1,0.3-1.4,0.4c-1.2,0.3-2.5,0.7-3.7,1.1c-0.2,0.1-0.4,0.1-0.6,0.2c-1.4,0.4-2.9,0.9-4.3,1.4
			c-0.4,0.1-0.8,0.3-1.2,0.4c-1,0.4-2,0.7-3.1,1.1c-0.5,0.2-1,0.4-1.5,0.6c-0.9,0.3-1.8,0.7-2.7,1.1c-0.5,0.2-1,0.4-1.6,0.6
			c-0.9,0.4-1.8,0.7-2.7,1.1c-0.5,0.2-1,0.4-1.5,0.6c-1,0.4-1.9,0.9-2.9,1.3c-0.4,0.2-0.8,0.4-1.2,0.6c-1.4,0.6-2.7,1.3-4.1,2
			c-0.1,0-0.2,0.1-0.3,0.1c-1.2,0.6-2.5,1.3-3.7,1.9c-0.4,0.2-0.9,0.5-1.3,0.7c-0.9,0.5-1.8,1-2.7,1.5c-0.5,0.3-1,0.6-1.5,0.8
			c-0.8,0.5-1.7,1-2.5,1.5c-0.5,0.3-1,0.6-1.5,0.9c-0.8,0.5-1.7,1-2.5,1.6c-0.5,0.3-0.9,0.6-1.4,0.9c-1,0.6-1.9,1.3-2.9,1.9
			c-0.3,0.2-0.6,0.4-0.9,0.6c-1.3,0.9-2.5,1.7-3.7,2.6c-0.3,0.2-0.6,0.4-0.9,0.6c-0.9,0.7-1.9,1.4-2.8,2.1c-0.4,0.3-0.9,0.7-1.3,1
			c-0.8,0.6-1.6,1.2-2.3,1.8c-0.5,0.4-0.9,0.7-1.4,1.1c-0.8,0.6-1.5,1.2-2.3,1.9c-0.5,0.4-0.9,0.8-1.4,1.1c-0.8,0.7-1.6,1.3-2.3,2
			c-0.4,0.3-0.8,0.7-1.2,1c-0.1,0.1-0.2,0.2-0.3,0.3c34.3,39.7,81.1,64.4,124.5,64.4c39,0,77.2-22.5,113.7-66.9
			c-1.1-1-2.3-1.9-3.4-2.9C1114,1287.4,1113.6,1287.1,1113.3,1286.8z"/>
		<path id="XMLID_74_" class="st0" d="M868.6,1230.2c-1.3,0.7-2.5,1.4-3.8,2.1c-0.6,0.3-1.2,0.7-1.8,1c-1.2,0.7-2.4,1.4-3.6,2.1
			c-0.5,0.3-1.1,0.6-1.6,1c-1.4,0.9-2.9,1.7-4.3,2.6c0.6,1.1,1.2,2.3,1.8,3.4c1.5-1.2,2.9-2.4,4.4-3.6c0.4-0.3,0.8-0.6,1.2-0.9
			c1.2-0.9,2.4-1.9,3.6-2.8c0.5-0.4,1.1-0.8,1.6-1.2c1.1-0.8,2.2-1.6,3.3-2.4c0.6-0.4,1.1-0.8,1.7-1.2c1.2-0.9,2.4-1.7,3.7-2.5
			c0.4-0.3,0.9-0.6,1.3-0.9c0.9-0.6,1.9-1.3,2.9-1.9c-3,1.4-6,2.9-9,4.5C869.6,1229.7,869.1,1229.9,868.6,1230.2z"/>
		<path id="XMLID_72_" class="st0" d="M841.3,1126c0.5-0.3,1-0.7,1.5-1c0.8-0.5,1.6-1,2.4-1.5c0,0,0,0,0.1,0c-0.5,0.2-1,0.5-1.5,0.7
			c-0.3,0.2-0.6,0.3-0.9,0.5c-1.6,0.8-3.1,1.6-4.6,2.4c-0.7,0.4-1.4,0.7-2,1.1c-1.2,0.6-2.3,1.2-3.5,1.9c-0.8,0.4-1.5,0.9-2.3,1.3
			c-1,0.6-2.1,1.2-3.1,1.8c-0.8,0.5-1.6,0.9-2.4,1.4c-1,0.6-2,1.2-3,1.8c-0.8,0.5-1.6,1-2.4,1.5c-1,0.6-1.9,1.2-2.9,1.8
			c-0.8,0.5-1.6,1-2.4,1.5c-0.5,0.3-1,0.7-1.5,1c1.5,17.6,5.4,35.7,11.8,54c5.3,15.2,12.3,30.7,20.9,46.4c1.5-1.2,2.9-2.4,4.4-3.6
			c0.4-0.3,0.8-0.6,1.2-0.9c1.2-0.9,2.4-1.9,3.6-2.8c0.5-0.4,1.1-0.8,1.6-1.2c1.1-0.8,2.2-1.6,3.3-2.4c0.6-0.4,1.1-0.8,1.7-1.2
			c1.2-0.9,2.4-1.7,3.7-2.5c0.4-0.3,0.9-0.6,1.3-0.9c1.7-1.1,3.3-2.2,5-3.3c0.3-0.2,0.5-0.3,0.8-0.5c0,0,0,0,0,0
			c-7.8-14.5-14.2-28.9-19.1-42.9C846.7,1161.7,842.7,1143.6,841.3,1126z"/>
		<path id="XMLID_70_" class="st0" d="M1161.8,1210.4c-2-1.3-3.9-2.6-5.9-3.9c-0.3-0.2-0.7-0.4-1-0.6c-1.7-1-3.4-2.1-5.1-3.1
			c-0.7-0.4-1.4-0.8-2-1.2c-1.4-0.8-2.8-1.6-4.2-2.4c-0.7-0.4-1.5-0.8-2.2-1.2c-1.5-0.8-2.9-1.5-4.4-2.3c-0.7-0.3-1.3-0.7-2-1
			c-2.1-1.1-4.2-2.1-6.4-3.1c-31.6-14.7-65.3-22.1-100.2-22.1c-2,0-4,0-6,0.1c-0.6,0-1.2,0-1.9,0.1c-1.4,0-2.8,0.1-4.2,0.2
			c-0.7,0-1.4,0.1-2.1,0.1c-1.4,0.1-2.7,0.2-4.1,0.3c-0.7,0.1-1.3,0.1-2,0.2c-1.7,0.1-3.3,0.3-5,0.5c-0.3,0-0.6,0.1-1,0.1
			c-2,0.2-3.9,0.5-5.9,0.7c-0.5,0.1-1.1,0.2-1.6,0.2c-1.4,0.2-2.8,0.4-4.3,0.7c-0.7,0.1-1.4,0.2-2,0.3c-1.3,0.2-2.7,0.5-4,0.7
			c-0.7,0.1-1.3,0.2-2,0.4c-1.5,0.3-3,0.6-4.5,0.9c-0.4,0.1-0.9,0.2-1.3,0.3c-1.9,0.4-3.9,0.9-5.8,1.4c-0.4,0.1-0.8,0.2-1.2,0.3
			c-1.5,0.4-3,0.8-4.5,1.2c-0.6,0.2-1.3,0.4-1.9,0.5c-1.3,0.4-2.6,0.8-3.9,1.2c-0.6,0.2-1.3,0.4-1.9,0.6c-1.4,0.4-2.8,0.9-4.2,1.4
			c-0.5,0.2-1,0.3-1.5,0.5c-1.9,0.6-3.8,1.3-5.6,2c-0.2,0.1-0.4,0.2-0.6,0.2c-1.6,0.6-3.3,1.2-4.9,1.9c-0.6,0.2-1.1,0.5-1.7,0.7
			c-1.3,0.5-2.6,1.1-3.9,1.6c-0.6,0.3-1.2,0.5-1.8,0.8c-1.3,0.6-2.6,1.1-3.9,1.7c-0.5,0.2-1.1,0.5-1.6,0.7
			c-3.6,1.7-7.2,3.5-10.7,5.3c-0.5,0.3-1,0.5-1.5,0.8c-1.3,0.7-2.5,1.4-3.8,2.1c-0.6,0.3-1.2,0.7-1.8,1c-1.2,0.7-2.4,1.4-3.6,2.1
			c-0.5,0.3-1.1,0.6-1.6,1c-1.4,0.9-2.9,1.8-4.3,2.7c-0.3,0.2-0.5,0.3-0.8,0.5c-0.7,0.5-1.4,1-2.2,1.4c0.6-0.3,1.2-0.6,1.7-0.8
			c0.5-0.2,1.1-0.5,1.6-0.7c1.3-0.6,2.6-1.2,3.9-1.7c0.6-0.3,1.2-0.5,1.8-0.8c1.3-0.5,2.6-1.1,3.9-1.6c0.6-0.2,1.1-0.5,1.7-0.7
			c1.6-0.7,3.3-1.3,4.9-1.9c0.2-0.1,0.4-0.2,0.6-0.2c1.9-0.7,3.7-1.4,5.6-2c0.5-0.2,1-0.3,1.5-0.5c1.4-0.5,2.8-0.9,4.2-1.4
			c0.6-0.2,1.3-0.4,1.9-0.6c1.3-0.4,2.6-0.8,3.9-1.2c0.6-0.2,1.3-0.4,1.9-0.5c1.5-0.4,3-0.8,4.5-1.2c0.4-0.1,0.8-0.2,1.2-0.3
			c1.9-0.5,3.9-0.9,5.8-1.4c0.4-0.1,0.9-0.2,1.3-0.3c1.5-0.3,3-0.6,4.5-0.9c0.7-0.1,1.3-0.3,2-0.4c1.3-0.3,2.6-0.5,4-0.7
			c0.7-0.1,1.4-0.2,2-0.3c1.4-0.2,2.8-0.4,4.3-0.7c0.5-0.1,1.1-0.2,1.6-0.2c2-0.3,3.9-0.5,5.9-0.7c0.3,0,0.6-0.1,1-0.1
			c1.7-0.2,3.3-0.3,5-0.5c0.7-0.1,1.3-0.1,2-0.2c1.4-0.1,2.7-0.2,4.1-0.3c0.7,0,1.4-0.1,2.1-0.1c1.4-0.1,2.8-0.1,4.2-0.2
			c0.6,0,1.2,0,1.9-0.1c2-0.1,4-0.1,6-0.1c34.8,0,68.5,7.4,100.2,22.1c2.2,1,4.3,2,6.4,3.1c0.7,0.3,1.3,0.7,2,1
			c1.5,0.7,2.9,1.5,4.4,2.3c0.7,0.4,1.5,0.8,2.2,1.2c1.4,0.8,2.8,1.6,4.2,2.4c0.7,0.4,1.4,0.8,2,1.2c1.7,1,3.4,2,5.1,3.1
			c0.3,0.2,0.7,0.4,1,0.6c2,1.3,4,2.5,5.9,3.9c0.6,0.4,1.1,0.8,1.7,1.1c1.4,1,2.8,1.9,4.2,2.9c0.7,0.5,1.4,1,2,1.5
			c1.3,0.9,2.6,1.9,3.8,2.8c0.7,0.5,1.3,1,2,1.5c1.4,1.1,2.8,2.2,4.2,3.3c0.4,0.3,0.8,0.6,1.1,0.9c5.3-9.1,10-18,14.2-26.9
			c-1-0.7-2-1.4-3-2.1C1162.9,1211.2,1162.4,1210.8,1161.8,1210.4z"/>
		<path id="XMLID_68_" class="st1" d="M1395.4,779.1c1.7,6.8,2.5,13.8,2.5,20.8c0,29.6-15.1,57.8-42.5,79.5
			c-29.3,23.1-68.5,35.8-110.5,35.8c-68.7,0-136.1-46.2-192.8-96.8c-3.1,3-6.2,6-9.2,9c60.9,58,137.1,117.4,215,117.4
			c42,0,81.3-12.7,110.5-35.8c27.4-21.6,42.5-49.9,42.5-79.5C1410.9,811.8,1405.5,794.6,1395.4,779.1z"/>
		<path id="XMLID_66_" class="st1" d="M604.6,779.1c-1.7,6.8-2.5,13.8-2.5,20.8c0,29.6,15.1,57.8,42.5,79.5
			c29.3,23.1,68.5,35.8,110.5,35.8c68.7,0,136.1-46.2,192.8-96.8c3.1,3,6.2,6,9.2,9c-60.9,58-137.1,117.4-215,117.4
			c-42,0-81.3-12.7-110.5-35.8c-27.4-21.6-42.5-49.9-42.5-79.5C589.1,811.8,594.5,794.6,604.6,779.1z"/>
		<path id="XMLID_65_" class="st0" d="M1148.7,787.8l8.8-5.6l0.9-2.5c46.3-29.4,97.7-50.1,150.8-50.1c49.1,0,94.9,14.8,129.1,41.8
			c12.9,10.2,23.5,21.7,31.6,34c-6.3-25.5-22.3-49.2-46.7-68.5c-34.2-27-80-41.8-129.1-41.8c-53.1,0-104.5,20.7-150.8,50.1l-0.9,2.5
			l-8.8,5.6c-18.5,11.8-37,25.5-55.4,41c-12.4,10.8-24.2,22-35.3,33c8.4,8,17.1,16.1,26,24c7.8-7.5,16-15,24.5-22.4
			C1111.7,813.2,1130.2,799.5,1148.7,787.8z"/>
		<path id="XMLID_1_" class="st0" d="M851.3,787.8l-8.8-5.6l-0.9-2.5c-46.3-29.4-97.7-50.1-150.8-50.1c-49.1,0-94.9,14.8-129.1,41.8
			c-12.9,10.2-23.5,21.7-31.6,34c6.3-25.5,22.3-49.2,46.7-68.5c34.2-27,80-41.8,129.1-41.8c53.1,0,104.5,20.7,150.8,50.1l0.9,2.5
			l8.8,5.6c18.5,11.8,37,25.5,55.4,41c12.4,10.8,24.2,22,35.3,33c-8.4,8-17.1,16.1-26,24c-7.8-7.5-16-15-24.5-22.4
			C888.3,813.2,869.8,799.5,851.3,787.8z"/>
		<path id="XMLID_80_" class="st2" d="M1460.7,689.2c-44.8-35.4-104-54.8-166.7-54.8c-46.7,0-91.5,12.4-133.1,32
			c0.1-2.4,0.2-4.8,0.2-7.2c0-56.8-30.2-106.7-75.7-135c13.3-48.2,47.9-89.2,94.3-111c15.2-7.1,21.7-25.2,14.6-40.4
			c-7.1-15.2-25.2-21.7-40.4-14.6c-60.6,28.4-106.4,81.4-125.4,144.1c-9.5-1.7-19.3-2.6-29.3-2.6c-11.6,0-22.8,1.2-33.7,3.5
			c-18.9-63.1-64.8-116.4-125.7-144.9c-15.2-7.1-33.3-0.6-40.4,14.6c-7.1,15.2-0.6,33.3,14.6,40.4c47.2,22.2,82.3,64.2,95,113.6
			c-43.2,28.7-71.7,77.3-71.7,132.4c0,2.1,0.1,4.3,0.1,6.4c-41.2-19.1-85.4-31.2-131.5-31.2c-62.7,0-121.8,19.5-166.7,54.8
			c-47,37-72.8,86.9-72.8,140.5c0,53.6,25.9,103.5,72.8,140.5c44.8,35.4,104,54.8,166.7,54.8c23.4,0,46.3-3.4,68.7-9.5
			c-15,33.7-23.4,71.3-23.4,110.9l0,0.3c0,0,0,0,0,0c0,29.2,5.4,59.2,15.8,89.3c10.5,30.2,26.4,61,47.2,91.7c0,0,0,0,0,0
			c46.3,68.2,119,110.5,189.7,110.5c65.5,0,125.6-38,178.8-112.9c0,0,0,0,0,0c21.8-30.7,38.3-61.1,49.3-90.6
			c11-29.7,16.6-59.2,16.7-87.7c0,0,0,0,0-0.1c0-0.2,0-0.3,0-0.5c0-39.6-8.4-77.2-23.4-110.9c22.4,6.1,45.2,9.5,68.6,9.5
			c62.7,0,121.8-19.5,166.7-54.8c47-37,72.8-86.9,72.8-140.5C1533.5,776.1,1507.6,726.2,1460.7,689.2z M999.2,560.3
			c55.8,0,101.1,44.3,101.1,98.8c0,13.7-2.8,30.1-8,47.1c-17.9,12.4-34.8,25.7-50.8,39.4c-13.9,11.6-27.6,24-41.3,37.3
			c-18.5-18.1-37.2-34.5-56-49.3c-12.3-10-25.2-19.7-38.6-28.9c-4.9-16.5-7.6-32.4-7.6-45.7C898.1,604.6,943.4,560.3,999.2,560.3z
			 M1180.1,1068.1c-0.3-0.2-0.6-0.3-0.9-0.4c-3-1.4-6-2.9-9-4.2c-0.4-0.2-0.8-0.3-1.2-0.5c-2.7-1.2-5.4-2.4-8.2-3.5
			c-0.8-0.3-1.7-0.7-2.5-1c-3.1-1.3-6.2-2.5-9.4-3.7c-0.1,0-0.2-0.1-0.3-0.1c-3.1-1.2-6.1-2.3-9.2-3.4c-0.9-0.3-1.7-0.6-2.6-0.9
			c-2.9-1-5.7-1.9-8.6-2.9c-0.4-0.1-0.8-0.2-1.1-0.4c-3.2-1-6.4-2-9.7-2.9c-0.9-0.3-1.8-0.5-2.7-0.8c-2.7-0.8-5.5-1.5-8.2-2.2
			c-0.6-0.2-1.2-0.3-1.9-0.5c-3.3-0.8-6.5-1.6-9.8-2.4c-0.9-0.2-1.7-0.4-2.6-0.6c-2.7-0.6-5.5-1.2-8.2-1.7c-0.8-0.2-1.5-0.3-2.3-0.5
			c-3.3-0.6-6.7-1.3-10-1.8c-0.8-0.1-1.6-0.3-2.3-0.4c-2.8-0.5-5.6-0.9-8.4-1.3c-0.9-0.1-1.7-0.2-2.6-0.4c-3.4-0.5-6.8-0.9-10.2-1.3
			c-0.6-0.1-1.3-0.1-1.9-0.2c-2.9-0.3-5.8-0.6-8.8-0.8c-0.9-0.1-1.8-0.2-2.7-0.2c-3.5-0.3-6.9-0.5-10.4-0.7c-0.4,0-0.8,0-1.2-0.1
			c-3.1-0.2-6.3-0.3-9.5-0.4c-0.9,0-1.9-0.1-2.8-0.1c-3.5-0.1-7.1-0.1-10.6-0.1c-3.6,0-7.1,0.1-10.6,0.1c-0.9,0-1.9,0-2.8,0.1
			c-3.2,0.1-6.3,0.2-9.5,0.4c-0.4,0-0.8,0-1.2,0.1c-3.5,0.2-7,0.4-10.4,0.7c-0.9,0.1-1.8,0.2-2.7,0.2c-2.9,0.3-5.8,0.5-8.8,0.8
			c-0.6,0.1-1.3,0.1-1.9,0.2c-3.4,0.4-6.8,0.8-10.2,1.3c-0.9,0.1-1.7,0.2-2.6,0.4c-2.8,0.4-5.6,0.8-8.4,1.3
			c-0.8,0.1-1.6,0.2-2.4,0.4c-3.4,0.6-6.7,1.2-10,1.8c-0.8,0.2-1.5,0.3-2.3,0.5c-2.7,0.5-5.5,1.1-8.2,1.7c-0.9,0.2-1.7,0.4-2.6,0.6
			c-3.3,0.8-6.6,1.5-9.8,2.4c-0.6,0.2-1.3,0.3-1.9,0.5c-2.8,0.7-5.5,1.5-8.2,2.2c-0.9,0.3-1.8,0.5-2.7,0.8c-3.2,0.9-6.5,1.9-9.7,2.9
			c-0.4,0.1-0.8,0.3-1.2,0.4c-2.9,0.9-5.7,1.9-8.6,2.9c-0.9,0.3-1.8,0.6-2.6,0.9c-3.1,1.1-6.1,2.2-9.2,3.3c-0.1,0-0.2,0.1-0.4,0.1
			c-3.1,1.2-6.2,2.4-9.3,3.7c-0.8,0.3-1.7,0.7-2.5,1c-2.7,1.1-5.4,2.3-8.1,3.5c-0.4,0.2-0.8,0.4-1.2,0.5c-3,1.4-6,2.8-9,4.2
			c-0.3,0.2-0.6,0.3-1,0.4c23.4-82.7,95.2-143.1,180-143.1C1084.8,925,1156.7,985.4,1180.1,1068.1z M706,964.3
			c-49.1,0-94.9-14.8-129.1-41.8c-32-25.3-49.7-58.2-49.7-92.8c0-34.6,17.6-67.5,49.7-92.8c34.2-27,80-41.8,129.1-41.8
			c52.3,0,102.9,20,148.7,48.7l0.8,2.2l9,5.6c15.1,9.5,30.2,20.3,45.4,32.3c17,14,32.8,28.7,47.4,43.3
			C886,894.9,797,964.3,706,964.3z M1004,1357.5c-43.4,0-90.2-24.7-124.5-64.4c0.1-0.1,0.2-0.2,0.3-0.3c0.4-0.4,0.8-0.7,1.2-1
			c0.8-0.7,1.6-1.4,2.3-2c0.5-0.4,0.9-0.8,1.4-1.1c0.7-0.6,1.5-1.2,2.3-1.9c0.5-0.4,0.9-0.7,1.4-1.1c0.8-0.6,1.6-1.2,2.3-1.8
			c0.4-0.3,0.9-0.7,1.3-1c0.9-0.7,1.9-1.4,2.8-2.1c0.3-0.2,0.6-0.4,0.9-0.6c1.2-0.9,2.5-1.8,3.7-2.6c0.3-0.2,0.6-0.4,0.9-0.6
			c1-0.6,1.9-1.3,2.9-1.9c0.4-0.3,0.9-0.6,1.4-0.9c0.8-0.5,1.7-1.1,2.5-1.6c0.5-0.3,1-0.6,1.5-0.9c0.8-0.5,1.7-1,2.5-1.5
			c0.5-0.3,1-0.6,1.5-0.8c0.9-0.5,1.8-1,2.7-1.5c0.4-0.2,0.9-0.5,1.3-0.7c1.2-0.7,2.5-1.3,3.7-1.9c0.1,0,0.2-0.1,0.3-0.1
			c1.3-0.7,2.7-1.3,4.1-2c0.4-0.2,0.8-0.4,1.2-0.6c1-0.4,1.9-0.9,2.9-1.3c0.5-0.2,1-0.4,1.5-0.6c0.9-0.4,1.8-0.8,2.7-1.1
			c0.5-0.2,1-0.4,1.6-0.6c0.9-0.4,1.8-0.7,2.7-1.1c0.5-0.2,1-0.4,1.5-0.6c1-0.4,2-0.7,3.1-1.1c0.4-0.1,0.8-0.3,1.2-0.4
			c1.4-0.5,2.8-0.9,4.3-1.4c0.2-0.1,0.4-0.1,0.6-0.2c1.2-0.4,2.5-0.7,3.7-1.1c0.5-0.1,1-0.3,1.4-0.4c1-0.3,1.9-0.5,2.9-0.8
			c0.5-0.1,1.1-0.3,1.6-0.4c0.9-0.2,1.9-0.4,2.8-0.7c0.6-0.1,1.1-0.3,1.7-0.4c1-0.2,1.9-0.4,2.9-0.6c0.5-0.1,1-0.2,1.5-0.3
			c1.2-0.2,2.4-0.4,3.5-0.6c0.3-0.1,0.6-0.1,0.9-0.2c1.5-0.2,3-0.5,4.5-0.7c0.4-0.1,0.8-0.1,1.2-0.2c1.1-0.1,2.2-0.3,3.3-0.4
			c0.5-0.1,1.1-0.1,1.6-0.2c1-0.1,1.9-0.2,2.9-0.3c0.6,0,1.2-0.1,1.7-0.1c1-0.1,1.9-0.1,2.9-0.2c0.6,0,1.1-0.1,1.7-0.1
			c1-0.1,2.1-0.1,3.1-0.1c0.5,0,1,0,1.5-0.1c1.5,0,3.1-0.1,4.6-0.1c1.5,0,3,0,4.5,0.1c0.5,0,1,0,1.4,0c1,0,2,0.1,3,0.1
			c0.6,0,1.1,0.1,1.7,0.1c1,0.1,1.9,0.1,2.8,0.2c0.6,0,1.1,0.1,1.7,0.1c1,0.1,2,0.2,2.9,0.3c0.5,0.1,1,0.1,1.5,0.2
			c1.2,0.1,2.4,0.3,3.5,0.4c0.3,0,0.6,0.1,0.9,0.1c1.5,0.2,2.9,0.4,4.4,0.6c0.4,0.1,0.8,0.1,1.1,0.2c1.1,0.2,2.2,0.4,3.2,0.6
			c0.5,0.1,1,0.2,1.5,0.3c1,0.2,1.9,0.4,2.8,0.6c0.5,0.1,1.1,0.2,1.6,0.3c0.9,0.2,1.9,0.4,2.8,0.7c0.5,0.1,1,0.2,1.5,0.4
			c1.1,0.3,2.1,0.5,3.1,0.8c0.4,0.1,0.7,0.2,1.1,0.3c1.4,0.4,2.8,0.8,4.2,1.2c0.2,0.1,0.4,0.1,0.5,0.2c1.2,0.4,2.4,0.8,3.6,1.2
			c0.4,0.1,0.9,0.3,1.3,0.5c1,0.3,1.9,0.7,2.9,1c0.5,0.2,1,0.4,1.5,0.5c0.9,0.3,1.8,0.7,2.7,1c0.5,0.2,1,0.4,1.5,0.6
			c1,0.4,1.9,0.8,2.9,1.2c0.4,0.2,0.8,0.3,1.2,0.5c1.3,0.6,2.7,1.1,4,1.7c0,0,0,0,0.1,0c1.3,0.6,2.7,1.3,4,1.9
			c0.4,0.2,0.7,0.4,1.1,0.6c1,0.5,1.9,0.9,2.8,1.4c0.5,0.2,0.9,0.5,1.4,0.7c0.9,0.5,1.7,0.9,2.6,1.4c0.5,0.3,0.9,0.5,1.4,0.8
			c0.9,0.5,1.7,1,2.6,1.5c0.4,0.2,0.9,0.5,1.3,0.7c1,0.6,2,1.2,3.1,1.9c0.2,0.2,0.5,0.3,0.7,0.5c1.3,0.8,2.5,1.6,3.8,2.4
			c0.3,0.2,0.6,0.4,0.9,0.6c0.9,0.6,1.9,1.3,2.8,1.9c0.4,0.3,0.9,0.6,1.3,0.9c0.8,0.6,1.6,1.1,2.4,1.7c0.5,0.3,0.9,0.7,1.4,1
			c0.8,0.6,1.5,1.2,2.3,1.8c0.4,0.3,0.9,0.7,1.3,1c0.8,0.7,1.7,1.3,2.5,2c0.4,0.3,0.7,0.6,1.1,0.9c1.1,0.9,2.3,1.9,3.4,2.9
			C1081.3,1335,1043.1,1357.5,1004,1357.5z M1175.2,1193.6c-5.6,15.2-13.2,30.9-22.6,46.9c-0.4-0.3-0.8-0.6-1.1-0.9
			c-1.4-1.1-2.8-2.2-4.2-3.3c-0.7-0.5-1.3-1-2-1.5c-1.3-1-2.5-1.9-3.8-2.8c-0.7-0.5-1.4-1-2-1.5c-1.4-1-2.8-2-4.2-2.9
			c-0.6-0.4-1.1-0.8-1.7-1.1c-2-1.3-3.9-2.6-5.9-3.9c-0.3-0.2-0.7-0.4-1-0.6c-1.7-1-3.4-2.1-5.1-3.1c-0.7-0.4-1.4-0.8-2-1.2
			c-1.4-0.8-2.8-1.6-4.2-2.4c-0.7-0.4-1.5-0.8-2.2-1.2c-1.5-0.8-2.9-1.5-4.4-2.3c-0.7-0.3-1.3-0.7-2-1c-2.1-1.1-4.2-2.1-6.4-3.1
			c-31.6-14.7-65.3-22.1-100.2-22.1c-2,0-4,0-6,0.1c-0.6,0-1.2,0-1.9,0.1c-1.4,0-2.8,0.1-4.2,0.2c-0.7,0-1.4,0.1-2.1,0.1
			c-1.4,0.1-2.7,0.2-4.1,0.3c-0.7,0.1-1.3,0.1-2,0.2c-1.7,0.1-3.3,0.3-5,0.5c-0.3,0-0.6,0.1-1,0.1c-2,0.2-3.9,0.5-5.9,0.7
			c-0.5,0.1-1.1,0.2-1.6,0.2c-1.4,0.2-2.8,0.4-4.3,0.7c-0.7,0.1-1.4,0.2-2,0.3c-1.3,0.2-2.7,0.5-4,0.7c-0.7,0.1-1.3,0.2-2,0.4
			c-1.5,0.3-3,0.6-4.5,0.9c-0.4,0.1-0.9,0.2-1.3,0.3c-1.9,0.4-3.9,0.9-5.8,1.4c-0.4,0.1-0.8,0.2-1.2,0.3c-1.5,0.4-3,0.8-4.5,1.2
			c-0.6,0.2-1.3,0.4-1.9,0.5c-1.3,0.4-2.6,0.8-3.9,1.2c-0.6,0.2-1.3,0.4-1.9,0.6c-1.4,0.4-2.8,0.9-4.2,1.4c-0.5,0.2-1,0.3-1.5,0.5
			c-1.9,0.6-3.8,1.3-5.6,2c-0.2,0.1-0.4,0.2-0.6,0.2c-1.6,0.6-3.3,1.2-4.9,1.9c-0.6,0.2-1.1,0.5-1.7,0.7c-1.3,0.5-2.6,1.1-3.9,1.6
			c-0.6,0.3-1.2,0.5-1.8,0.8c-1.3,0.6-2.6,1.1-3.9,1.7c-0.5,0.2-1.1,0.5-1.6,0.7c-3.6,1.7-7.2,3.5-10.7,5.3c-0.5,0.3-1,0.5-1.5,0.8
			c-1.3,0.7-2.5,1.4-3.8,2.1c-0.6,0.3-1.2,0.7-1.8,1c-1.2,0.7-2.4,1.4-3.6,2.1c-0.5,0.3-1.1,0.6-1.6,1c-1.4,0.9-2.9,1.8-4.3,2.7
			c-0.3,0.2-0.5,0.3-0.8,0.5c-1.7,1.1-3.4,2.2-5,3.3c-0.4,0.3-0.9,0.6-1.3,0.9c-1.2,0.8-2.4,1.7-3.7,2.5c-0.6,0.4-1.1,0.8-1.7,1.2
			c-1.1,0.8-2.2,1.6-3.3,2.4c-0.5,0.4-1.1,0.8-1.6,1.2c-1.2,0.9-2.4,1.9-3.6,2.8c-0.4,0.3-0.8,0.6-1.2,0.9c-1.5,1.2-3,2.4-4.4,3.6
			c-8.6-15.7-15.6-31.2-20.9-46.4c-6.4-18.3-10.3-36.4-11.8-54c0.5-0.3,1-0.7,1.5-1c0.8-0.5,1.6-1,2.4-1.5c1-0.6,1.9-1.2,2.9-1.8
			c0.8-0.5,1.6-1,2.4-1.5c1-0.6,2-1.2,3-1.8c0.8-0.5,1.6-0.9,2.4-1.4c1-0.6,2.1-1.2,3.1-1.8c0.8-0.4,1.5-0.9,2.3-1.3
			c1.1-0.6,2.3-1.2,3.5-1.9c0.7-0.4,1.3-0.7,2-1.1c1.5-0.8,3.1-1.6,4.6-2.4c0.3-0.2,0.6-0.3,0.9-0.5c1.9-0.9,3.7-1.8,5.6-2.7
			c0.6-0.3,1.3-0.6,1.9-0.9c1.3-0.6,2.5-1.2,3.8-1.8c0.8-0.3,1.6-0.7,2.3-1c1.1-0.5,2.3-1,3.4-1.5c0.8-0.4,1.7-0.7,2.5-1.1
			c1.1-0.5,2.2-0.9,3.3-1.4c0.9-0.3,1.7-0.7,2.6-1c1.1-0.4,2.2-0.9,3.3-1.3c0.9-0.3,1.8-0.7,2.7-1c1.1-0.4,2.2-0.8,3.3-1.2
			c0.9-0.3,1.8-0.6,2.7-1c1.1-0.4,2.2-0.8,3.4-1.2c0.9-0.3,1.8-0.6,2.7-0.9c1.1-0.4,2.3-0.7,3.4-1.1c0.9-0.3,1.8-0.6,2.7-0.9
			c1.2-0.4,2.3-0.7,3.5-1.1c0.9-0.3,1.8-0.5,2.6-0.8c1.2-0.4,2.5-0.7,3.7-1c0.8-0.2,1.7-0.5,2.5-0.7c1.3-0.4,2.7-0.7,4.1-1.1
			c0.7-0.2,1.5-0.4,2.2-0.6c1.9-0.5,3.8-0.9,5.7-1.4c0.2,0,0.4-0.1,0.6-0.1c2.1-0.5,4.2-0.9,6.3-1.4c0.7-0.1,1.4-0.3,2.1-0.4
			c1.4-0.3,2.9-0.6,4.3-0.9c0.8-0.2,1.7-0.3,2.5-0.5c1.3-0.2,2.6-0.5,3.9-0.7c0.9-0.2,1.8-0.3,2.7-0.5c1.3-0.2,2.5-0.4,3.8-0.6
			c0.9-0.1,1.9-0.3,2.8-0.4c1.2-0.2,2.5-0.4,3.7-0.5c1-0.1,1.9-0.3,2.9-0.4c1.2-0.2,2.5-0.3,3.7-0.5c1-0.1,1.9-0.2,2.9-0.3
			c1.2-0.1,2.5-0.3,3.7-0.4c1-0.1,1.9-0.2,2.9-0.3c1.3-0.1,2.5-0.2,3.8-0.3c1-0.1,1.9-0.2,2.9-0.2c1.3-0.1,2.6-0.2,3.9-0.3
			c0.9-0.1,1.9-0.1,2.8-0.2c1.3-0.1,2.7-0.1,4-0.2c0.9,0,1.8-0.1,2.6-0.1c1.5-0.1,3-0.1,4.5-0.1c0.7,0,1.5,0,2.2-0.1
			c2.2,0,4.5-0.1,6.7-0.1c2.2,0,4.5,0,6.7,0.1c0.7,0,1.5,0,2.2,0.1c1.5,0,3,0.1,4.5,0.1c0.9,0,1.8,0.1,2.7,0.1
			c1.3,0.1,2.7,0.1,4,0.2c0.9,0.1,1.9,0.1,2.8,0.2c1.3,0.1,2.6,0.2,3.8,0.3c1,0.1,1.9,0.1,2.9,0.2c1.2,0.1,2.5,0.2,3.7,0.3
			c1,0.1,2,0.2,2.9,0.3c1.2,0.1,2.5,0.2,3.7,0.4c1,0.1,2,0.2,2.9,0.3c1.2,0.1,2.4,0.3,3.6,0.4c1,0.1,2,0.2,2.9,0.4
			c1.2,0.2,2.4,0.3,3.6,0.5c1,0.1,1.9,0.3,2.9,0.4c1.2,0.2,2.5,0.4,3.7,0.6c0.9,0.2,1.9,0.3,2.8,0.5c1.3,0.2,2.5,0.5,3.8,0.7
			c0.9,0.2,1.8,0.3,2.6,0.5c1.4,0.3,2.8,0.5,4.2,0.8c0.7,0.2,1.5,0.3,2.2,0.5c2.1,0.4,4.2,0.9,6.3,1.4c0.4,0.1,0.9,0.2,1.3,0.3
			c1.7,0.4,3.3,0.8,5,1.2c0.8,0.2,1.6,0.4,2.4,0.6c1.3,0.3,2.6,0.7,3.8,1c0.9,0.2,1.8,0.5,2.7,0.7c1.2,0.3,2.4,0.7,3.5,1
			c0.9,0.3,1.8,0.5,2.8,0.8c1.1,0.3,2.3,0.7,3.4,1c0.9,0.3,1.9,0.6,2.8,0.9c1.1,0.4,2.2,0.7,3.3,1.1c0.9,0.3,1.9,0.6,2.8,0.9
			c1.1,0.4,2.2,0.7,3.3,1.1c0.9,0.3,1.8,0.7,2.8,1c1.1,0.4,2.2,0.8,3.3,1.2c0.9,0.3,1.8,0.7,2.7,1c1.1,0.4,2.2,0.8,3.3,1.3
			c0.9,0.3,1.8,0.7,2.7,1.1c1.1,0.4,2.2,0.9,3.3,1.4c0.8,0.4,1.7,0.7,2.5,1.1c1.1,0.5,2.3,1,3.4,1.5c0.8,0.3,1.6,0.7,2.3,1
			c1.3,0.6,2.6,1.2,3.9,1.8c0.6,0.3,1.2,0.6,1.9,0.9c1.9,0.9,3.7,1.8,5.6,2.7c0.4,0.2,0.9,0.5,1.3,0.7c1.4,0.7,2.8,1.4,4.2,2.2
			c0.7,0.4,1.4,0.7,2.1,1.1c1.1,0.6,2.3,1.2,3.4,1.9c0.8,0.4,1.5,0.8,2.3,1.3c1.1,0.6,2.1,1.2,3.2,1.8c0.8,0.4,1.5,0.9,2.3,1.4
			c1,0.6,2,1.2,3,1.8c0.8,0.5,1.5,0.9,2.3,1.4c1,0.6,2,1.2,3,1.9c0.8,0.5,1.5,1,2.3,1.5c0.5,0.3,1,0.7,1.5,1
			C1185.8,1158.7,1181.7,1176,1175.2,1193.6z M1423.1,922.5c-34.2,27-80,41.8-129.1,41.8c-91,0-180-69.4-251.2-137.1
			c11-11,22.8-22.1,35.3-33c18.4-15.5,36.9-29.2,55.4-41l8.8-5.6l0.9-2.5c46.3-29.4,97.7-50.1,150.8-50.1
			c49.1,0,94.9,14.8,129.1,41.8c32,25.3,49.7,58.2,49.7,92.8C1472.8,864.2,1455.1,897.2,1423.1,922.5z"/>
	</g>
	<g>
		<path class="st3" d="M640.6,1434.1c0-5.2-2.7-7.6-7.6-7.6H619V1398h33c15.5,0,22,6.5,22,22v56.7c0,8.2-0.7,14.4-0.7,14.4h0.7
			c0,0,15.1-28.5,56-28.5c46.7,0,76.3,37.1,76.3,91.1c0,55.3-33.3,91.1-79,91.1c-38.8,0-54.6-29.2-54.6-29.2h-0.7
			c0,0,0.7,5.5,0.7,13.1v12h-32V1434.1z M722.4,1616.2c27.5,0,50.2-22.7,50.2-62.2c0-37.8-20.3-62.2-49.5-62.2
			c-25.8,0-49.8,18.2-49.8,62.5C673.2,1585.3,689.4,1616.2,722.4,1616.2z"/>
		<path class="st3" d="M918.6,1462.6c48.8,0,74.9,36.4,74.9,81.4c0,4.5-1,13.7-1,13.7H865.7c2.1,37.1,28.9,58.1,59.8,58.1
			c29.9,0,50.9-20.3,50.9-20.3l14.4,23.7c0,0-25.8,25.4-67,25.4c-55,0-92.4-39.5-92.4-91.1C831.3,1498.3,869.1,1462.6,918.6,1462.6z
			 M959.1,1533.4c-1-28.9-19.2-44.3-40.9-44.3c-25.4,0-46,15.5-51.2,44.3H959.1z"/>
		<path class="st3" d="M1108.2,1462.6c48.8,0,74.9,36.4,74.9,81.4c0,4.5-1,13.7-1,13.7h-126.8c2.1,37.1,28.9,58.1,59.8,58.1
			c29.9,0,50.9-20.3,50.9-20.3l14.4,23.7c0,0-25.8,25.4-67,25.4c-55,0-92.4-39.5-92.4-91.1C1021,1498.3,1058.8,1462.6,1108.2,1462.6
			z M1148.8,1533.4c-1-28.9-19.2-44.3-40.9-44.3c-25.4,0-46,15.5-51.2,44.3H1148.8z"/>
		<path class="st1" d="M1252.5,1509v-0.7c0,0-29.9-15.8-29.9-49.5c0-33.7,26.8-64.9,75.6-64.9c46.4,0,75.9,27.8,75.9,65.6
			c0,35.7-29.2,57.7-29.2,57.7v0.7c22,12.7,36.1,29.5,36.1,55.7c0,37.8-34.4,71.1-83.8,71.1c-45.7,0-84.5-28.5-84.5-73.5
			C1212.7,1531.3,1252.5,1509,1252.5,1509z M1297.2,1613.4c25.4,0,49.1-16.8,49.1-40.9c0-21.3-18.2-30.6-40.9-39.9
			c-9.3-3.8-22.3-8.9-25.1-8.9c-8.6,0-33,19.9-33,45.7C1247.4,1596.6,1270.7,1613.4,1297.2,1613.4z M1315.1,1503.5
			c8.2,0,25.8-20.3,25.8-41.9c0-22.3-17.9-36.4-42.6-36.4c-26.5,0-41.9,15.1-41.9,34.4c0,21.3,18.2,29.6,39.9,38.1
			C1301,1499.7,1310.9,1503.5,1315.1,1503.5z"/>
	</g>
</g>
</svg>
